<svg width="122" height="32" viewBox="0 0 122 32" fill="none" xmlns="http://www.w3.org/2000/svg">
    <path d="M0 4C0 1.79086 1.79086 0 4 0H27.3534C29.5625 0 31.3534 1.79086 31.3534 4V32H4C1.79086 32 0 30.2091 0 28V4Z"
          fill="#171717"/>
    <path
        d="M21.7056 23L14.1856 15.82L21.5456 9.24H23.5056L15.6656 16.22L15.6856 15.38L23.7056 23H21.7056ZM12.9856 23V9.24H14.4456V23H12.9856Z"
        fill="white"/>
    <path
        d="M9.3 23V20.58H12.88C13.7867 20.58 14.58 20.3933 15.26 20.02C15.94 19.6333 16.4667 19.0933 16.84 18.4C17.2267 17.7067 17.42 16.8867 17.42 15.94C17.42 15.02 17.2267 14.22 16.84 13.54C16.4533 12.8467 15.92 12.3133 15.24 11.94C14.56 11.5533 13.7733 11.36 12.88 11.36H9.24V8.94H12.92C13.96 8.94 14.92 9.11333 15.8 9.46C16.6933 9.80667 17.4667 10.3 18.12 10.94C18.7867 11.5667 19.3 12.3067 19.66 13.16C20.0333 14.0133 20.22 14.9467 20.22 15.96C20.22 16.9733 20.0333 17.9133 19.66 18.78C19.3 19.6333 18.7933 20.38 18.14 21.02C17.4867 21.6467 16.7133 22.1333 15.82 22.48C14.94 22.8267 13.9867 23 12.96 23H9.3ZM7.44 23V8.94H10.16V23H7.44Z"
        fill="white"/>
    <path
        d="M43.3 22V19.58H46.88C47.7867 19.58 48.58 19.3933 49.26 19.02C49.94 18.6333 50.4667 18.0933 50.84 17.4C51.2267 16.7067 51.42 15.8867 51.42 14.94C51.42 14.02 51.2267 13.22 50.84 12.54C50.4533 11.8467 49.92 11.3133 49.24 10.94C48.56 10.5533 47.7733 10.36 46.88 10.36H43.24V7.94H46.92C47.96 7.94 48.92 8.11333 49.8 8.46C50.6933 8.80667 51.4667 9.3 52.12 9.94C52.7867 10.5667 53.3 11.3067 53.66 12.16C54.0333 13.0133 54.22 13.9467 54.22 14.96C54.22 15.9733 54.0333 16.9133 53.66 17.78C53.3 18.6333 52.7933 19.38 52.14 20.02C51.4867 20.6467 50.7133 21.1333 49.82 21.48C48.94 21.8267 47.9867 22 46.96 22H43.3ZM41.44 22V7.94H44.16V22H41.44ZM60.9414 22.2C60.0614 22.2 59.2681 21.98 58.5614 21.54C57.8547 21.1 57.3014 20.5 56.9014 19.74C56.5014 18.98 56.3014 18.1267 56.3014 17.18C56.3014 16.22 56.5014 15.36 56.9014 14.6C57.3014 13.84 57.8547 13.24 58.5614 12.8C59.2681 12.36 60.0614 12.14 60.9414 12.14C61.6347 12.14 62.2547 12.28 62.8014 12.56C63.3481 12.84 63.7814 13.2333 64.1014 13.74C64.4347 14.2333 64.6147 14.7933 64.6414 15.42V18.9C64.6147 19.54 64.4347 20.1067 64.1014 20.6C63.7814 21.0933 63.3481 21.4867 62.8014 21.78C62.2547 22.06 61.6347 22.2 60.9414 22.2ZM61.4214 19.78C62.1547 19.78 62.7481 19.54 63.2014 19.06C63.6547 18.5667 63.8814 17.9333 63.8814 17.16C63.8814 16.6533 63.7747 16.2067 63.5614 15.82C63.3614 15.42 63.0747 15.1133 62.7014 14.9C62.3414 14.6733 61.9147 14.56 61.4214 14.56C60.9414 14.56 60.5147 14.6733 60.1414 14.9C59.7814 15.1133 59.4947 15.42 59.2814 15.82C59.0814 16.2067 58.9814 16.6533 58.9814 17.16C58.9814 17.68 59.0814 18.14 59.2814 18.54C59.4947 18.9267 59.7814 19.2333 60.1414 19.46C60.5147 19.6733 60.9414 19.78 61.4214 19.78ZM63.7414 22V19.4L64.1614 17.04L63.7414 14.72V12.34H66.3414V22H63.7414ZM72.7792 22.22C72.2326 22.22 71.6926 22.1467 71.1592 22C70.6392 21.8533 70.1592 21.6533 69.7192 21.4C69.2792 21.1333 68.8992 20.8133 68.5792 20.44L70.1392 18.86C70.4726 19.2333 70.8592 19.5133 71.2992 19.7C71.7392 19.8867 72.2259 19.98 72.7592 19.98C73.1859 19.98 73.5059 19.92 73.7192 19.8C73.9459 19.68 74.0592 19.5 74.0592 19.26C74.0592 18.9933 73.9392 18.7867 73.6992 18.64C73.4726 18.4933 73.1726 18.3733 72.7992 18.28C72.4259 18.1733 72.0326 18.06 71.6192 17.94C71.2192 17.8067 70.8326 17.64 70.4592 17.44C70.0859 17.2267 69.7792 16.94 69.5392 16.58C69.3126 16.2067 69.1992 15.7267 69.1992 15.14C69.1992 14.5267 69.3459 13.9933 69.6392 13.54C69.9459 13.0867 70.3792 12.7333 70.9392 12.48C71.4992 12.2267 72.1592 12.1 72.9192 12.1C73.7192 12.1 74.4392 12.24 75.0792 12.52C75.7326 12.8 76.2726 13.22 76.6992 13.78L75.1192 15.36C74.8259 15 74.4926 14.74 74.1192 14.58C73.7592 14.42 73.3659 14.34 72.9392 14.34C72.5526 14.34 72.2526 14.4 72.0392 14.52C71.8392 14.64 71.7392 14.8067 71.7392 15.02C71.7392 15.26 71.8526 15.4467 72.0792 15.58C72.3192 15.7133 72.6259 15.8333 72.9992 15.94C73.3726 16.0333 73.7592 16.1467 74.1592 16.28C74.5726 16.4 74.9592 16.5733 75.3192 16.8C75.6926 17.0267 75.9926 17.3267 76.2192 17.7C76.4592 18.0733 76.5792 18.5533 76.5792 19.14C76.5792 20.0867 76.2392 20.84 75.5592 21.4C74.8792 21.9467 73.9526 22.22 72.7792 22.22ZM85.6459 22V16.46C85.6459 15.8867 85.4659 15.42 85.1059 15.06C84.7459 14.7 84.2793 14.52 83.7059 14.52C83.3326 14.52 82.9993 14.6 82.7059 14.76C82.4126 14.92 82.1793 15.1467 82.0059 15.44C81.8459 15.7333 81.7659 16.0733 81.7659 16.46L80.7459 15.94C80.7459 15.18 80.9059 14.52 81.2259 13.96C81.5459 13.3867 81.9859 12.94 82.5459 12.62C83.1193 12.3 83.7726 12.14 84.5059 12.14C85.2393 12.14 85.8859 12.3 86.4459 12.62C87.0193 12.94 87.4659 13.38 87.7859 13.94C88.1059 14.5 88.2659 15.1467 88.2659 15.88V22H85.6459ZM79.1459 22V7.54H81.7659V22H79.1459ZM99.9564 22L93.8564 14.66L99.7964 7.94H103.196L96.5764 15.24L96.5964 13.98L103.416 22H99.9564ZM91.4564 22V7.94H94.1764V22H91.4564ZM105.746 22V12.34H108.386V22H105.746ZM107.066 10.78C106.639 10.78 106.286 10.64 106.006 10.36C105.726 10.0667 105.586 9.70667 105.586 9.28C105.586 8.86667 105.726 8.51333 106.006 8.22C106.286 7.92667 106.639 7.78 107.066 7.78C107.506 7.78 107.859 7.92667 108.126 8.22C108.406 8.51333 108.546 8.86667 108.546 9.28C108.546 9.70667 108.406 10.0667 108.126 10.36C107.859 10.64 107.506 10.78 107.066 10.78ZM112.927 22V8.32H115.547V22H112.927ZM110.667 14.64V12.34H117.807V14.64H110.667Z"
        fill="#111112"/>
</svg>
