<svg width="32" height="32" viewBox="0 0 32 32" fill="none" xmlns="http://www.w3.org/2000/svg">
    <path
        d="M0 6C0 2.68629 2.68629 0 6 0H26C29.3137 0 32 2.68629 32 6V31C32 31.5523 31.5523 32 31 32H6C2.68629 32 0 29.3137 0 26V6Z"
        fill="white"/>
    <path
        d="M22.48 23L14.96 15.82L22.32 9.24H24.28L16.44 16.22L16.46 15.38L24.48 23H22.48ZM13.76 23V9.24H15.22V23H13.76Z"
        fill="#171717"/>
    <path
        d="M10.3 23V20.58H13.88C14.7867 20.58 15.58 20.3933 16.26 20.02C16.94 19.6333 17.4667 19.0933 17.84 18.4C18.2267 17.7067 18.42 16.8867 18.42 15.94C18.42 15.02 18.2267 14.22 17.84 13.54C17.4533 12.8467 16.92 12.3133 16.24 11.94C15.56 11.5533 14.7733 11.36 13.88 11.36H10.24V8.94H13.92C14.96 8.94 15.92 9.11333 16.8 9.46C17.6933 9.80667 18.4667 10.3 19.12 10.94C19.7867 11.5667 20.3 12.3067 20.66 13.16C21.0333 14.0133 21.22 14.9467 21.22 15.96C21.22 16.9733 21.0333 17.9133 20.66 18.78C20.3 19.6333 19.7933 20.38 19.14 21.02C18.4867 21.6467 17.7133 22.1333 16.82 22.48C15.94 22.8267 14.9867 23 13.96 23H10.3ZM8.44 23V8.94H11.16V23H8.44Z"
        fill="#171717"/>
</svg>
